<?xml version="1.0" standalone="no"?>
<!DOCTYPE svg PUBLIC "-//W3C//DTD SVG 20010904//EN"
 "http://www.w3.org/TR/2001/REC-SVG-20010904/DTD/svg10.dtd">
<svg version="1.0" xmlns="http://www.w3.org/2000/svg"
 width="305.000000pt" height="305.000000pt" viewBox="0 0 305.000000 305.000000"
 preserveAspectRatio="xMidYMid meet">
<metadata>
Created by potrace 1.11, written by Peter Selinger 2001-2013
</metadata>
<g transform="translate(0.000000,305.000000) scale(0.100000,-0.100000)"
fill="#000000" stroke="none">
<path d="M274 3038 c-4 -6 -2 -13 5 -17 6 -4 12 -47 14 -105 3 -87 6 -99 28
-121 27 -26 78 -36 126 -23 47 12 63 50 63 149 0 63 4 87 17 101 13 14 13 18
2 19 -8 0 -22 2 -33 4 -10 2 -24 1 -32 -2 -11 -4 -11 -8 0 -26 17 -28 21 -156
5 -189 -21 -48 -100 -44 -118 5 -15 38 -8 177 9 187 8 5 11 12 7 16 -12 12
-87 13 -93 2z"/>
<path d="M563 3043 c-10 -4 -9 -10 2 -26 21 -30 21 -184 0 -214 -13 -19 -13
-22 1 -27 46 -17 82 2 54 30 -10 10 -16 151 -7 160 3 3 31 -28 63 -68 66 -83
109 -128 124 -128 6 0 10 45 10 117 0 94 3 120 17 135 13 14 13 18 2 19 -8 0
-22 2 -33 4 -10 2 -25 1 -33 -2 -12 -5 -11 -8 2 -23 12 -13 15 -35 13 -91 l-3
-74 -78 96 c-76 95 -93 106 -134 92z"/>
<path d="M863 3043 c-9 -3 -9 -10 3 -28 20 -30 18 -199 -2 -216 -21 -17 -7
-29 34 -29 49 0 68 12 47 30 -12 10 -15 34 -15 111 0 58 4 100 11 104 30 19
-37 43 -78 28z"/>
<path d="M970 3040 c-6 -4 -3 -13 9 -24 10 -10 25 -32 32 -49 43 -111 83 -197
91 -197 5 0 17 19 27 43 71 168 86 199 100 207 23 14 -3 29 -43 26 -27 -2 -52
-26 -27 -26 6 0 11 -9 11 -19 0 -25 -50 -141 -60 -141 -5 0 -20 34 -36 76 -22
63 -25 77 -13 84 7 5 10 13 5 17 -9 10 -82 12 -96 3z"/>
<path d="M1253 3037 c-3 -5 1 -13 8 -18 21 -12 20 -206 -1 -219 -33 -20 7 -31
105 -28 97 3 99 3 106 29 6 23 -4 62 -13 49 -2 -3 -8 -14 -14 -25 -8 -14 -24
-21 -58 -23 -40 -3 -47 -1 -54 19 -5 12 -7 31 -6 43 1 11 3 24 3 29 1 4 15 7
32 7 22 0 32 -5 36 -20 6 -23 19 -26 25 -7 4 10 3 61 -1 90 -2 15 -20 6 -26
-14 -5 -15 -14 -19 -37 -17 -34 3 -43 24 -28 64 8 20 17 24 48 24 26 0 45 -7
57 -20 22 -24 38 -9 25 24 -7 19 -15 21 -104 22 -54 0 -100 -4 -103 -9z"/>
<path d="M1494 3038 c-4 -6 -1 -14 7 -18 19 -12 19 -208 0 -219 -23 -15 -2
-31 39 -31 40 0 62 16 40 30 -15 9 -22 71 -9 91 15 26 62 -2 79 -47 21 -57 39
-76 68 -72 28 3 43 28 18 28 -9 0 -20 16 -27 41 -7 22 -21 46 -31 54 -19 13
-19 13 1 27 31 22 37 68 13 98 -17 22 -28 24 -106 26 -49 1 -89 -2 -92 -8z
m142 -26 c19 -12 25 -47 11 -65 -7 -10 -28 -19 -47 -20 -33 -2 -35 -1 -35 33
-1 19 1 41 3 48 4 13 50 16 68 4z"/>
<path d="M1813 3040 c-43 -17 -58 -84 -25 -113 9 -8 37 -26 61 -39 59 -31 72
-52 46 -77 -26 -24 -76 -12 -95 24 -17 32 -36 26 -33 -10 3 -37 13 -46 60 -54
75 -14 133 19 133 75 0 39 -20 60 -77 86 -50 22 -71 52 -52 74 16 20 52 17 82
-6 14 -11 30 -20 35 -20 11 0 4 38 -9 56 -11 13 -96 16 -126 4z"/>
<path d="M1990 3040 c-7 -4 -6 -11 5 -20 12 -10 15 -34 15 -111 0 -54 -4 -101
-10 -104 -5 -3 -10 -13 -10 -21 0 -10 12 -14 44 -14 46 0 70 15 42 26 -24 9
-23 200 1 226 18 20 19 19 -44 22 -18 1 -38 -1 -43 -4z"/>
<path d="M2109 3040 c0 -3 -3 -17 -5 -32 -6 -36 10 -43 30 -13 17 26 51 34 58
13 2 -7 4 -55 3 -106 -1 -65 -5 -96 -14 -102 -23 -14 -2 -30 39 -30 40 0 62
16 40 30 -12 7 -21 165 -12 203 6 25 39 21 58 -9 21 -31 39 -18 29 24 l-6 30
-110 -1 c-60 -1 -109 -4 -110 -7z"/>
<path d="M2394 2943 c-21 -59 -49 -119 -61 -134 -27 -32 -22 -39 28 -39 40 0
61 16 35 26 -21 8 -20 41 2 52 25 14 92 8 103 -9 13 -21 11 -36 -8 -43 -28
-11 5 -26 52 -24 54 2 60 7 37 32 -11 11 -39 66 -63 121 -68 161 -73 161 -125
18z m80 -39 c5 -17 1 -19 -33 -19 -43 0 -42 -7 -10 73 l11 27 13 -31 c7 -17
15 -39 19 -50z"/>
<path d="M2653 3040 c-26 -11 -43 -40 -43 -74 0 -26 45 -68 86 -80 31 -10 56
-40 48 -60 -16 -42 -80 -35 -105 10 -16 31 -35 25 -32 -11 3 -37 13 -46 60
-54 75 -14 133 19 133 75 0 38 -20 60 -76 85 -55 25 -69 42 -54 68 15 29 52
26 89 -5 l31 -26 0 30 c0 16 -6 34 -12 39 -17 13 -97 15 -125 3z"/>
<path d="M516 2679 c-21 -5 -51 -18 -67 -30 -52 -37 -61 -68 -62 -215 l-1
-134 -41 0 c-23 0 -44 -3 -47 -6 -10 -10 44 -95 67 -106 l22 -10 -1 -596 -1
-597 -35 -1 c-19 -1 -40 -2 -46 -3 -6 0 -31 -52 -54 -113 -24 -62 -46 -117
-51 -123 -4 -5 -30 -10 -58 -9 l-51 1 0 -176 0 -176 1423 1 c782 1 1428 2
1435 3 10 1 12 39 10 172 l-3 172 -52 1 c-29 1 -54 4 -56 7 -2 2 -23 57 -47
121 l-44 118 -43 0 -43 0 0 605 c0 588 1 605 19 605 18 0 71 74 71 99 0 6 -20
11 -45 11 l-45 0 0 130 c0 154 -10 187 -69 226 -80 53 -217 30 -263 -44 -15
-25 -21 -52 -22 -98 l-1 -64 -35 -1 c-19 -1 -75 -1 -124 -1 -79 0 -89 -2 -93
-19 -5 -17 -15 -19 -113 -19 -103 0 -108 1 -103 20 5 19 0 20 -106 20 -104 0
-111 -1 -111 -20 0 -19 -7 -20 -104 -20 -97 0 -105 1 -101 19 3 17 -5 18 -107
19 -102 1 -111 -1 -115 -19 -5 -18 -13 -20 -108 -18 -91 1 -104 4 -108 20 -4
16 -16 18 -98 17 -159 -1 -145 -6 -144 53 3 128 -100 208 -229 178z m98 -38
c28 -1 86 -65 86 -95 l0 -26 -135 0 -135 0 0 25 c0 53 82 109 145 99 11 -1 28
-3 39 -3z m1944 -5 c38 -20 61 -47 68 -82 l6 -31 -139 1 -138 1 3 25 c9 79
121 127 200 86z m-1860 -163 c4 -6 7 -46 6 -90 l-1 -78 -139 -3 -139 -3 2 81
c0 44 2 86 2 93 1 17 258 18 269 0z m1932 -78 l0 -96 -137 3 -138 3 0 93 0 92
137 0 138 0 0 -95z m-1685 -40 l0 -50 -100 -3 -100 -3 2 43 c1 24 2 48 2 54 1
7 34 11 99 10 l97 -1 0 -50z m436 46 c0 -3 1 -26 2 -51 l1 -45 -69 0 -70 0 0
40 c-1 22 0 45 2 50 3 11 132 16 134 6z m427 -49 l3 -52 -70 0 -71 0 0 53 0
53 68 -1 67 0 3 -53z m500 1 l3 -53 -106 0 -107 0 3 48 c1 26 4 50 5 53 2 3
47 5 101 5 l98 -1 3 -52z m-1108 -18 l0 -35 -105 0 -105 0 0 35 0 35 105 0
105 0 0 -35z m426 -3 l2 -33 -100 3 -101 3 -3 27 c-3 32 2 34 115 33 l85 0 2
-33z m430 25 c6 -3 9 -18 6 -32 -4 -25 -5 -25 -108 -25 l-104 0 0 28 c0 16 2
31 4 33 7 7 190 4 202 -4z m641 -111 c-4 -11 -2297 -22 -2325 -11 -7 3 -11 9
-8 13 8 13 2337 10 2333 -2z m-1996 -75 c5 -86 2 -144 -6 -149 -11 -7 -243
-11 -260 -5 -8 3 -11 61 -6 151 1 17 12 19 136 19 117 0 135 -2 136 -16z
m1609 -36 l0 -55 -779 0 c-614 0 -780 3 -783 13 -4 10 -3 85 1 95 1 1 352 2
781 2 l780 0 0 -55z m320 -29 c0 -72 -3 -84 -17 -88 -10 -2 -72 -3 -138 -2
l-120 1 -3 86 -3 87 141 0 140 0 0 -84z m-320 -336 c0 -233 -2 -270 -15 -270
-12 0 -15 15 -15 75 0 74 -18 135 -40 135 -6 0 -10 12 -10 28 -1 36 -35 110
-68 145 -66 70 -181 94 -270 56 -54 -24 -75 -40 -112 -91 l-26 -36 -35 46
c-44 59 -109 93 -185 97 -80 3 -166 -40 -211 -108 l-31 -47 -21 33 c-48 77
-121 119 -207 119 -105 1 -200 -71 -231 -172 -10 -30 -27 -68 -40 -83 -20 -24
-23 -40 -23 -109 0 -57 -3 -79 -12 -76 -9 3 -12 71 -13 254 -1 137 1 255 3
262 3 9 169 12 783 12 l779 0 0 -270z m-1686 201 l38 -1 -16 -25 c-21 -32 -21
-30 17 -46 41 -17 42 -19 42 -76 l0 -48 -37 -3 -38 -3 0 40 0 41 -65 0 -65 0
0 -39 c0 -35 -3 -39 -30 -43 -41 -6 -45 -1 -46 59 -1 50 0 52 38 69 42 19 43
21 23 48 -20 27 -14 31 47 29 29 0 70 -2 92 -2z m1951 -18 c-21 -32 -19 -37
20 -52 35 -12 35 -13 35 -71 l0 -59 -38 2 c-37 1 -39 3 -37 33 3 45 -3 49 -65
50 -54 0 -79 -14 -65 -36 4 -6 3 -19 0 -30 -5 -15 -15 -20 -41 -20 l-34 0 0
58 0 57 41 17 c31 13 39 21 32 30 -5 7 -13 21 -16 30 -5 15 4 16 88 15 l95 -1
-15 -23z m58 -3 c-5 -19 -23 -29 -23 -12 0 7 20 32 26 32 1 0 0 -9 -3 -20z
m-2189 -5 c3 -8 1 -15 -4 -15 -6 0 -10 7 -10 15 0 8 2 15 4 15 2 0 6 -7 10
-15z m263 -5 c-1 -22 -17 -28 -17 -7 0 12 9 27 16 27 2 0 2 -9 1 -20z m1663
-1 c0 -5 -4 -9 -10 -9 -5 0 -10 7 -10 16 0 8 5 12 10 9 6 -3 10 -10 10 -16z
m-1193 -60 c41 -26 70 -72 84 -137 9 -45 14 -52 35 -52 19 0 24 5 24 24 0 67
50 145 113 177 51 26 130 28 181 4 66 -32 116 -110 116 -182 0 -17 6 -23 23
-23 20 0 24 8 35 57 21 103 87 163 184 169 109 6 198 -65 214 -172 4 -28 16
-55 30 -69 22 -22 24 -32 24 -120 l0 -95 35 0 35 0 0 -275 0 -276 -77 3 -78 3
0 103 c-1 57 2 105 6 108 4 2 33 5 63 6 l56 2 0 93 0 93 -37 1 c-21 1 -48 1
-60 1 -23 -1 -23 0 -23 154 l0 155 -30 28 c-23 20 -30 35 -28 57 7 91 -90 156
-172 116 -42 -21 -61 -51 -65 -108 -2 -36 -9 -52 -26 -65 -23 -17 -24 -23 -27
-178 l-3 -161 -55 0 -54 0 0 156 0 156 -30 28 c-24 23 -30 36 -30 72 -1 67
-44 108 -114 108 -77 0 -119 -41 -119 -117 0 -30 -5 -48 -17 -56 -32 -23 -41
-56 -40 -150 1 -51 1 -115 1 -143 l-1 -50 -55 0 -55 0 0 143 c0 152 -7 188
-39 198 -17 5 -21 15 -21 51 0 53 -19 95 -52 112 -89 45 -179 -2 -183 -96 -2
-37 -9 -55 -29 -75 -26 -26 -26 -28 -26 -180 l0 -153 -51 -1 c-28 -1 -53 -4
-56 -6 -6 -7 -9 -177 -3 -178 3 -1 25 -2 50 -3 25 -1 51 -5 58 -10 8 -5 12
-40 12 -112 l0 -104 -75 0 c-53 0 -75 4 -76 13 -3 42 -4 515 -1 530 3 11 14
17 33 17 l29 0 0 90 c0 83 2 93 24 115 14 14 27 41 30 60 11 67 49 126 99 152
69 35 148 32 214 -8z m-587 -399 l0 -330 -24 0 -25 0 0 330 0 330 25 0 24 0 0
-330z m1460 290 c6 -10 10 -43 10 -72 0 -50 2 -54 30 -65 l30 -11 0 -170 c0
-154 2 -171 17 -174 28 -5 25 -97 -3 -120 -18 -15 -21 -28 -22 -120 0 -57 -1
-109 -1 -116 -1 -10 -29 -12 -123 -10 l-123 3 -3 115 c-2 103 -5 117 -24 131
-19 15 -23 33 -19 102 1 9 7 17 15 17 21 0 23 14 20 170 -2 136 5 192 23 189
27 -5 32 5 35 69 3 65 4 68 36 84 39 19 86 9 102 -22z m463 -277 c-1 -172 -2
-320 -2 -328 -1 -9 -11 -15 -24 -15 l-22 0 1 328 c1 180 2 328 3 330 0 2 11 2
23 0 l21 -3 0 -312z m-1407 299 c21 -14 34 -51 34 -100 0 -44 3 -51 24 -56 30
-7 35 -30 35 -156 -1 -192 0 -200 16 -200 12 0 15 -13 15 -55 0 -44 -4 -56
-20 -65 -18 -10 -20 -21 -20 -130 l0 -120 -125 0 -125 0 0 118 c0 113 -1 119
-22 131 -19 10 -23 20 -24 66 0 47 2 55 18 55 17 0 18 12 18 169 0 135 3 171
15 181 8 6 19 9 25 5 11 -7 11 -7 15 73 3 66 24 92 74 92 20 0 41 -4 47 -8z
m470 -6 c14 -11 20 -30 24 -80 3 -37 10 -67 15 -67 6 -1 18 -5 28 -10 15 -9
17 -28 17 -179 0 -156 1 -170 18 -170 28 0 24 -105 -5 -125 -18 -13 -20 -24
-19 -130 l1 -116 -125 3 -125 3 -2 115 c-2 100 -4 116 -22 130 -20 15 -24 32
-22 88 1 21 6 32 16 32 8 0 15 6 16 13 0 6 2 82 4 167 1 85 3 158 4 161 0 4
11 9 24 13 21 5 23 12 25 68 1 51 6 66 23 81 26 21 78 22 105 3z m-1076 -368
l0 -308 65 0 65 0 0 310 0 309 38 -2 37 -2 0 -405 0 -405 -30 0 c-30 0 -31 2
-34 50 -1 19 -7 21 -106 20 -88 -1 -105 2 -106 15 -3 43 -5 716 -2 722 2 4 19
7 38 6 l35 -1 0 -309z m1929 20 c0 -161 0 -302 0 -313 1 -18 7 -20 55 -18 30
0 59 4 64 7 5 3 9 135 10 298 0 161 1 299 1 306 1 7 15 12 36 12 l35 0 0 -375
0 -375 -110 0 -110 0 0 -35 c0 -32 -2 -35 -30 -35 l-30 0 0 410 0 410 40 0 40
0 -1 -292z m-1579 -213 c0 -43 -3 -53 -14 -49 -26 10 -26 104 0 104 10 0 14
-15 14 -55z m465 3 c0 -46 -3 -53 -20 -53 -17 0 -20 7 -21 45 -2 53 1 60 25
60 14 0 17 -9 16 -52z m462 -3 c0 -47 -3 -55 -19 -55 -19 0 -19 1 -22 53 -3
43 3 57 23 57 15 0 18 -10 18 -55z m462 0 c-2 -46 -5 -55 -21 -55 -19 0 -20 4
-20 55 -1 50 1 55 22 55 18 0 20 -6 19 -55z m-422 -98 c4 -5 7 -118 4 -190 -1
-28 -1 -28 -63 -25 l-63 3 0 105 0 105 30 5 c34 6 84 4 92 -3z m-459 -109 l3
-108 -66 0 -65 0 0 103 c0 57 3 107 7 111 4 4 32 6 63 4 l55 -3 3 -107z m-898
-77 c0 -3 -14 -49 -32 -103 l-32 -98 -74 0 c-55 0 -73 3 -70 13 55 147 72 186
87 189 25 5 121 4 121 -1z m138 -14 c2 -9 -2 -26 -9 -38 -26 -50 -181 -290
-185 -287 -2 2 17 69 43 148 25 80 48 155 50 167 7 32 95 41 101 10z m2130 9
c7 -8 72 -175 72 -187 0 -6 -31 -9 -72 -7 l-71 3 -33 97 c-28 85 -30 97 -16
100 26 5 113 0 120 -6z m-174 -13 c2 -10 26 -85 51 -166 26 -82 45 -151 43
-153 -7 -6 -191 289 -196 314 -4 20 -1 22 46 22 40 0 52 -4 56 -17z m-116 -78
c7 -14 12 -27 12 -28 0 -2 -416 -2 -925 -2 -509 0 -925 2 -925 5 0 3 7 16 16
28 l15 22 898 0 898 0 11 -25z m59 -90 c7 -11 13 -22 13 -25 0 -4 -443 -8
-985 -9 l-986 -1 12 22 c7 13 15 25 20 28 4 3 436 5 960 4 912 -1 953 -2 966
-19z m-2214 -64 c10 -2 9 -249 -2 -255 -9 -6 -71 -9 -123 -7 l-28 1 0 128 c0
71 2 131 4 133 4 4 126 4 149 0z m97 -4 c0 -7 -11 -44 -24 -83 l-25 -69 0 83
c-1 81 -1 82 24 82 14 0 25 -6 25 -13z m2342 -42 c6 -95 -5 -105 -30 -28 -12
38 -22 71 -22 74 0 3 11 6 24 7 22 1 24 -2 28 -53z m199 30 c1 -28 1 -205 0
-230 -1 -19 -7 -21 -73 -19 -40 1 -75 2 -78 3 -4 1 -5 245 -1 261 0 3 35 5 76
5 68 0 75 -2 76 -20z m-401 6 c28 -1 59 -39 42 -50 -8 -5 -2064 -7 -2080 -2
-9 3 22 43 38 49 14 5 1816 7 2000 3z m94 -116 c9 -11 16 -25 16 -31 0 -7
-332 -10 -1105 -10 -608 1 -1105 3 -1105 4 0 2 7 16 16 31 l16 28 1074 -1
c1058 -1 1074 -2 1088 -21z m38 -84 c10 -1 24 -13 32 -28 l14 -28 -1142 2
c-1335 2 -1196 1 -1196 11 0 5 8 17 18 28 18 19 40 19 1138 18 615 -1 1127 -3
1136 -3z"/>
<path d="M401 259 c-94 -42 -95 -191 -1 -241 71 -37 143 -19 167 42 9 22 20
40 25 40 4 0 8 7 8 15 0 12 -13 15 -55 15 -57 0 -70 -11 -35 -30 16 -8 19 -17
14 -33 -8 -28 -22 -37 -55 -37 -77 0 -120 163 -53 206 32 21 94 12 113 -16 21
-31 45 -26 36 8 -9 37 -12 39 -71 45 -37 4 -62 0 -93 -14z"/>
<path d="M711 267 c-6 -6 -11 -16 -11 -22 0 -25 -73 -191 -90 -206 -15 -13
-17 -19 -7 -26 9 -8 64 -10 86 -4 2 1 -4 10 -15 22 -27 29 -8 54 42 55 22 0
44 -1 51 -4 19 -6 23 -41 5 -51 -25 -14 -7 -25 43 -25 49 0 68 11 44 24 -9 5
-37 61 -63 124 -47 114 -63 135 -85 113z m32 -107 c8 -22 12 -40 9 -41 -4 -1
-21 -2 -38 -3 l-31 -2 14 43 c8 24 18 43 22 43 5 0 15 -18 24 -40z"/>
<path d="M1215 272 c-6 -4 -30 -56 -53 -116 -24 -60 -50 -115 -59 -121 -25
-18 -7 -33 33 -29 46 4 52 11 30 27 -15 11 -16 18 -8 34 8 15 21 20 56 20 55
1 77 -18 58 -48 -22 -34 -4 -40 92 -30 5 1 0 11 -12 24 -11 12 -40 67 -62 122
-44 106 -59 129 -75 117z m32 -148 c-6 -7 -67 -12 -67 -6 0 4 8 26 17 51 l17
45 19 -43 c10 -24 17 -45 14 -47z"/>
<path d="M1443 272 c-102 -3 -103 -3 -103 -27 0 -14 0 -28 -1 -32 -2 -17 20
-12 25 5 9 26 44 35 55 14 14 -28 7 -192 -9 -202 -20 -12 -7 -22 34 -25 43 -2
68 10 47 24 -10 7 -14 35 -16 106 -1 82 2 98 16 106 18 9 43 -7 51 -33 2 -6 9
-8 15 -5 12 7 8 58 -5 67 -4 3 -53 4 -109 2z"/>
<path d="M1793 272 c-93 -3 -104 -7 -81 -30 18 -18 16 -201 -2 -212 -26 -16 0
-24 88 -25 104 -2 108 0 116 31 10 37 -4 51 -23 25 -20 -26 -85 -36 -105 -15
-7 7 -13 27 -12 46 1 29 4 33 32 36 25 2 33 -1 37 -18 9 -36 27 -12 27 35 0
47 -18 71 -27 36 -4 -16 -13 -21 -39 -21 -33 0 -34 1 -31 35 3 20 7 39 11 42
14 14 89 5 98 -11 10 -18 28 -13 28 8 0 33 -24 41 -117 38z"/>
<path d="M2260 258 c-24 -14 -30 -25 -30 -52 0 -41 15 -58 82 -92 38 -20 49
-30 46 -46 -7 -47 -79 -49 -100 -3 -14 31 -38 32 -38 2 0 -44 23 -61 84 -64
70 -2 110 25 108 75 -1 44 -5 48 -73 82 -62 32 -77 60 -41 78 24 13 50 7 77
-18 28 -27 42 -11 23 26 -11 23 -20 27 -61 29 -31 1 -58 -5 -77 -17z"/>
<path d="M2611 269 c-79 -31 -64 -113 27 -149 18 -7 39 -22 47 -33 13 -18 13
-23 -2 -39 -24 -27 -58 -22 -87 13 -26 31 -48 32 -43 1 6 -37 24 -54 64 -59
59 -8 108 11 124 49 18 43 -2 75 -66 106 -67 34 -77 49 -50 76 19 19 51 13 81
-15 20 -19 24 -20 30 -6 9 23 -14 57 -39 58 -12 0 -31 2 -42 4 -11 2 -31 -1
-44 -6z"/>
<path d="M880 262 c0 -4 5 -13 11 -19 16 -16 15 -189 -1 -208 -20 -24 -5 -29
86 -30 91 -1 104 6 104 54 0 27 -14 27 -32 -1 -17 -25 -74 -30 -88 -8 -15 24
-9 178 6 191 8 6 11 15 8 20 -7 11 -94 12 -94 1z"/>
<path d="M1580 265 c0 -3 6 -16 14 -28 19 -31 16 -195 -4 -207 -22 -13 -4 -24
40 -24 44 0 62 11 40 24 -19 12 -22 184 -3 208 20 28 15 32 -37 32 -27 0 -50
-2 -50 -5z"/>
<path d="M1930 261 c0 -5 6 -13 13 -19 19 -16 16 -200 -3 -213 -22 -13 5 -29
39 -22 33 6 39 12 22 23 -10 6 -15 33 -16 89 -1 45 1 81 5 81 3 0 22 -21 41
-47 58 -78 130 -153 140 -147 5 3 9 56 9 119 0 65 4 116 10 120 21 13 9 25
-24 25 -39 0 -55 -14 -31 -28 13 -7 15 -23 13 -82 l-3 -74 -74 92 c-67 82 -78
92 -108 92 -18 0 -33 -4 -33 -9z"/>
<path d="M2436 261 c-3 -5 1 -11 9 -15 23 -9 22 -201 -2 -214 -15 -9 -14 -10
3 -20 19 -10 71 -8 82 3 3 3 0 11 -6 17 -15 15 -16 204 -2 213 6 3 10 10 10
16 0 12 -87 12 -94 0z"/>
</g>
</svg>
